<svg width="1440" height="900" viewBox="0 0 1440 900" fill="none" xmlns="http://www.w3.org/2000/svg">
<g clip-path="url(#clip0)">
<rect width="1440" height="900" rx="30" fill="#041220"/>
<path d="M-0.65979 -23C-0.65979 -23 1159.86 -33.2564 1412.85 -35.4923C1412.85 -35.4923 1472.38 -29.7422 1413.71 61.7825C1355.04 153.307 557.831 2.40913 0.199906 74.2748L-0.65979 -23Z" fill="#73388E"/>
<path d="M1.89551 925.726C1.89551 925.726 1181.07 884.217 1438.13 875.168C1438.13 875.168 1498.42 868.97 1435.91 812.07C1373.4 755.17 568.4 886.078 -0.325648 862.628L1.89551 925.726Z" fill="#73388E"/>
<path d="M16.6176 900.454C16.6176 900.454 1424.14 898.582 1451.66 899.502C1479.18 900.422 1451.63 850.57 1451.63 850.57C1338.48 829.96 1145.53 882.964 16.5852 851.522C-1112.36 820.081 16.6176 900.454 16.6176 900.454Z" fill="black" fill-opacity="0.6"/>
<path d="M910.84 52C909.323 52 907.97 51.6733 906.78 51.02C905.613 50.3433 904.692 49.4333 904.015 48.29C903.362 47.1467 903.035 45.8633 903.035 44.44V32.925H896.525V27.5H916.125V32.925H909.72V44.895C909.72 45.3617 909.883 45.7583 910.21 46.085C910.537 46.4117 910.922 46.575 911.365 46.575H913.535V52H910.84Z" fill="#E3E8F4"/>
<path d="M919.702 52V39.4C919.702 37.72 920.18 36.4017 921.137 35.445C922.117 34.465 923.47 33.975 925.197 33.975H930.727V38.735H927.052C926.679 38.735 926.375 38.8517 926.142 39.085C925.909 39.3183 925.792 39.6217 925.792 39.995V52H919.702Z" fill="#E3E8F4"/>
<path d="M948.472 52.455C946.605 52.455 944.972 52.105 943.572 51.405C942.195 50.6817 941.122 49.7133 940.352 48.5C939.605 47.2633 939.232 45.875 939.232 44.335V33.975H945.287V44.055C945.287 44.8483 945.567 45.5483 946.127 46.155C946.71 46.7617 947.457 47.065 948.367 47.065C949.277 47.065 950.012 46.7617 950.572 46.155C951.132 45.5483 951.412 44.8483 951.412 44.055V33.975H957.502V44.335C957.502 45.875 957.14 47.2633 956.417 48.5C955.694 49.7133 954.655 50.6817 953.302 51.405C951.949 52.105 950.339 52.455 948.472 52.455Z" fill="#E3E8F4"/>
<path d="M977.035 52C975.005 52 973.208 51.6383 971.645 50.915C970.082 50.1917 968.857 49.1533 967.97 47.8C967.083 46.4467 966.64 44.8483 966.64 43.005C966.64 40.975 967.072 39.26 967.935 37.86C968.798 36.4367 969.93 35.3633 971.33 34.64C972.753 33.9167 974.293 33.555 975.95 33.555C977.7 33.555 979.228 33.9283 980.535 34.675C981.842 35.3983 982.845 36.425 983.545 37.755C984.268 39.085 984.63 40.6367 984.63 42.41C984.63 42.7833 984.607 43.215 984.56 43.705C984.513 44.1717 984.455 44.5683 984.385 44.895H972.94C973.127 45.665 973.547 46.2367 974.2 46.61C974.853 46.9833 975.682 47.17 976.685 47.17H982.635V52H977.035ZM972.73 41.36H978.89C978.867 40.52 978.598 39.8083 978.085 39.225C977.572 38.6417 976.837 38.35 975.88 38.35C974.9 38.35 974.153 38.6533 973.64 39.26C973.127 39.8433 972.823 40.5433 972.73 41.36Z" fill="#E3E8F4"/>
<path d="M1017.14 52C1015.55 52 1014.16 51.6617 1012.97 50.985C1011.78 50.285 1010.86 49.375 1010.21 48.255C1009.55 47.1117 1009.23 45.84 1009.23 44.44V27.5H1015.91V44.685C1015.91 45.1983 1016.09 45.6417 1016.44 46.015C1016.81 46.3883 1017.25 46.575 1017.77 46.575H1024.24V52H1017.14Z" fill="#E3E8F4"/>
<path d="M1042.13 52.42C1040.31 52.42 1038.66 52.0233 1037.16 51.23C1035.69 50.4133 1034.51 49.2933 1033.63 47.87C1032.74 46.4467 1032.3 44.8133 1032.3 42.97C1032.3 41.15 1032.74 39.5283 1033.63 38.105C1034.51 36.6817 1035.7 35.5733 1037.2 34.78C1038.69 33.9633 1040.35 33.555 1042.17 33.555C1043.99 33.555 1045.63 33.9633 1047.1 34.78C1048.6 35.5733 1049.77 36.6817 1050.64 38.105C1051.52 39.5283 1051.97 41.15 1051.97 42.97C1051.97 44.8133 1051.52 46.4467 1050.64 47.87C1049.77 49.2933 1048.6 50.4133 1047.1 51.23C1045.63 52.0233 1043.98 52.42 1042.13 52.42ZM1042.13 47.03C1043.25 47.03 1044.15 46.645 1044.83 45.875C1045.53 45.105 1045.88 44.1367 1045.88 42.97C1045.88 41.8033 1045.53 40.835 1044.83 40.065C1044.15 39.295 1043.25 38.91 1042.13 38.91C1041.01 38.91 1040.1 39.295 1039.4 40.065C1038.73 40.835 1038.39 41.8033 1038.39 42.97C1038.39 44.1367 1038.73 45.105 1039.4 45.875C1040.1 46.645 1041.01 47.03 1042.13 47.03Z" fill="#E3E8F4"/>
<path d="M1068.52 52.455C1067.4 52.455 1066.38 52.175 1065.47 51.615C1064.59 51.055 1063.96 50.2733 1063.58 49.27L1058.51 33.975H1065.16L1068.31 46.295C1068.35 46.505 1068.45 46.61 1068.59 46.61C1068.7 46.61 1068.8 46.505 1068.87 46.295L1071.98 33.975H1078.53L1073.45 49.235C1073.08 50.2383 1072.44 51.0317 1071.53 51.615C1070.64 52.175 1069.64 52.455 1068.52 52.455Z" fill="#E3E8F4"/>
<path d="M1096 52C1093.97 52 1092.17 51.6383 1090.61 50.915C1089.05 50.1917 1087.82 49.1533 1086.94 47.8C1086.05 46.4467 1085.61 44.8483 1085.61 43.005C1085.61 40.975 1086.04 39.26 1086.9 37.86C1087.76 36.4367 1088.9 35.3633 1090.3 34.64C1091.72 33.9167 1093.26 33.555 1094.92 33.555C1096.67 33.555 1098.19 33.9283 1099.5 34.675C1100.81 35.3983 1101.81 36.425 1102.51 37.755C1103.23 39.085 1103.6 40.6367 1103.6 42.41C1103.6 42.7833 1103.57 43.215 1103.53 43.705C1103.48 44.1717 1103.42 44.5683 1103.35 44.895H1091.91C1092.09 45.665 1092.51 46.2367 1093.17 46.61C1093.82 46.9833 1094.65 47.17 1095.65 47.17H1101.6V52H1096ZM1091.7 41.36H1097.86C1097.83 40.52 1097.56 39.8083 1097.05 39.225C1096.54 38.6417 1095.8 38.35 1094.85 38.35C1093.87 38.35 1093.12 38.6533 1092.61 39.26C1092.09 39.8433 1091.79 40.5433 1091.7 41.36Z" fill="#E3E8F4"/>
</g>
<defs>
<clipPath id="clip0">
<rect width="1440" height="900" rx="30" fill="white"/>
</clipPath>
</defs>
</svg>
